name D:\PhD\Datasets\SharingData_IBEC_VALDUCE\RM1_Comp_0001.mot
datacolumns 46
datarows 10
range 5.01000000 5.10000000
endheader
                time	         pelvis_tilt	     pelvis_rotation	           pelvis_tx	           pelvis_ty	           pelvis_tz	       hip_flexion_r	     hip_adduction_r	      hip_rotation_r	        knee_angle_r	       ankle_angle_r	    subtalar_angle_r	         mtp_angle_r	       hip_flexion_l	     hip_adduction_l	      hip_rotation_l	        knee_angle_l	       ankle_angle_l	    subtalar_angle_l	         mtp_angle_l	    lumbar_extension	      lumbar_bending	     lumbar_rotation	          arm_flex_r	           arm_add_r	           arm_rot_r	        elbow_flex_r	           pro_sup_r	        wrist_flex_r	         wrist_dev_r	          arm_flex_l	           arm_add_l	           arm_rot_l	        elbow_flex_l	           pro_sup_l	        wrist_flex_l	         wrist_dev_l	          end_eff_tx	          end_eff_ty	          end_eff_tz	             goal_tx	             goal_ty	             goal_tz	            elbow_tx	            elbow_ty	            elbow_tz	
          5.01000000	          0.00000000	          0.00000000	        382.81830842	        489.11850740	        344.74029097	          0.00000000	          0.00000000	          0.00000000	          0.00000000	          0.00000000	          0.00000000	          0.00000000	          0.00000000	          0.00000000	          0.00000000	          0.00000000	          0.00000000	          0.00000000	          0.00000000	         -8.12249851	          0.93324292	          7.30523729	         56.28140640	        -55.94217300	         22.10966492	         87.52784729	         74.06378174	          0.00000000	          0.00000000	          0.00000000	          0.00000000	          0.00000000	          0.00000000	          0.00000000	          0.00000000	          0.00000000	        885.81040186	        678.08657922	        554.33348795	        885.15077151	        674.26264984	        573.73726885	        554.99357543	        502.50061791	        740.79997775	
          5.02000000	          0.00000000	          0.00000000	        382.80352896	        489.11988375	        344.75402135	          0.00000000	          0.00000000	          0.00000000	          0.00000000	          0.00000000	          0.00000000	          0.00000000	          0.00000000	          0.00000000	          0.00000000	          0.00000000	          0.00000000	          0.00000000	          0.00000000	         -8.15467262	          0.91534078	          7.29087019	         56.36178970	        -55.92687988	         22.15506172	         87.50174713	         74.08271027	          0.00000000	          0.00000000	          0.00000000	          0.00000000	          0.00000000	          0.00000000	          0.00000000	          0.00000000	          0.00000000	        885.78908402	        678.07069280	        554.31570433	        885.15976830	        674.26932180	        573.73270172	        554.97515340	        502.58008151	        740.86130135	
          5.03000000	          0.00000000	          0.00000000	        382.75715300	        489.08491592	        344.77234373	          0.00000000	          0.00000000	          0.00000000	          0.00000000	          0.00000000	          0.00000000	          0.00000000	          0.00000000	          0.00000000	          0.00000000	          0.00000000	          0.00000000	          0.00000000	          0.00000000	         -8.13595009	          0.92405927	          7.28995991	         56.36906433	        -55.93163681	         22.19292450	         87.50286865	         74.08293915	          0.00000000	          0.00000000	          0.00000000	          0.00000000	          0.00000000	          0.00000000	          0.00000000	          0.00000000	          0.00000000	        885.77697095	        678.03059995	        554.29515801	        885.17883813	        674.30771727	        573.69825052	        554.93924368	        502.66669339	        740.89377550	
          5.04000000	          0.00000000	          0.00000000	        382.70796448	        489.07410360	        344.79774686	          0.00000000	          0.00000000	          0.00000000	          0.00000000	          0.00000000	          0.00000000	          0.00000000	          0.00000000	          0.00000000	          0.00000000	          0.00000000	          0.00000000	          0.00000000	          0.00000000	         -8.14793015	          0.93100381	          7.30193090	         56.41614532	        -55.99638748	         22.22789764	         87.52980042	         74.05732727	          0.00000000	          0.00000000	          0.00000000	          0.00000000	          0.00000000	          0.00000000	          0.00000000	          0.00000000	          0.00000000	        885.77346717	        678.07011016	        554.33394841	        885.19811430	        674.24976223	        573.69347191	        554.91404245	        502.71513474	        740.94560225	
          5.05000000	          0.00000000	          0.00000000	        382.67888222	        489.06987338	        344.81171725	          0.00000000	          0.00000000	          0.00000000	          0.00000000	          0.00000000	          0.00000000	          0.00000000	          0.00000000	          0.00000000	          0.00000000	          0.00000000	          0.00000000	          0.00000000	          0.00000000	         -8.14410496	          0.92900115	          7.29272985	         56.44042969	        -55.97052383	         22.25662422	         87.50418854	         74.08055115	          0.00000000	          0.00000000	          0.00000000	          0.00000000	          0.00000000	          0.00000000	          0.00000000	          0.00000000	          0.00000000	        885.75344929	        678.05763376	        554.33884091	        885.22401693	        674.22581084	        573.68175945	        554.87639930	        502.74793950	        740.99624326	
          5.06000000	          0.00000000	          0.00000000	        382.64263853	        489.06306332	        344.82004482	          0.00000000	          0.00000000	          0.00000000	          0.00000000	          0.00000000	          0.00000000	          0.00000000	          0.00000000	          0.00000000	          0.00000000	          0.00000000	          0.00000000	          0.00000000	          0.00000000	         -8.16409492	          0.92109948	          7.31071377	         56.43237686	        -55.99083710	         22.22823524	         87.50931549	         74.07949829	          0.00000000	          0.00000000	          0.00000000	          0.00000000	          0.00000000	          0.00000000	          0.00000000	          0.00000000	          0.00000000	        885.72233896	        678.08056121	        554.36965320	        885.26114391	        674.24831691	        573.67057933	        554.82473719	        502.77921539	        740.98236555	
          5.07000000	          0.00000000	          0.00000000	        382.61751001	        489.04214675	        344.83426552	          0.00000000	          0.00000000	          0.00000000	          0.00000000	          0.00000000	          0.00000000	          0.00000000	          0.00000000	          0.00000000	          0.00000000	          0.00000000	          0.00000000	          0.00000000	          0.00000000	         -8.18132401	          0.90969145	          7.31433344	         56.40590286	        -55.99852371	         22.18606949	         87.52117920	         74.08087921	          0.00000000	          0.00000000	          0.00000000	          0.00000000	          0.00000000	          0.00000000	          0.00000000	          0.00000000	          0.00000000	        885.70039720	        678.06972840	        554.37261569	        885.31476332	        674.23016215	        573.63492236	        554.78660543	        502.80451874	        741.02471976	
          5.08000000	          0.00000000	          0.00000000	        382.58318534	        489.03277791	        344.83949984	          0.00000000	          0.00000000	          0.00000000	          0.00000000	          0.00000000	          0.00000000	          0.00000000	          0.00000000	          0.00000000	          0.00000000	          0.00000000	          0.00000000	          0.00000000	          0.00000000	         -8.16886711	          0.89522213	          7.32258701	         56.35260391	        -56.01099396	         22.11753082	         87.52243805	         74.07167053	          0.00000000	          0.00000000	          0.00000000	          0.00000000	          0.00000000	          0.00000000	          0.00000000	          0.00000000	          0.00000000	        885.68860206	        678.11694150	        554.43784632	        885.37153652	        674.24083066	        573.61135229	        554.74461685	        502.81185525	        741.04389232	
          5.09000000	          0.00000000	          0.00000000	        382.56313745	        489.02912629	        344.85051285	          0.00000000	          0.00000000	          0.00000000	          0.00000000	          0.00000000	          0.00000000	          0.00000000	          0.00000000	          0.00000000	          0.00000000	          0.00000000	          0.00000000	          0.00000000	          0.00000000	         -8.15718937	          0.91418475	          7.30808735	         56.36919022	        -55.99522400	         22.14245987	         87.51546478	         74.10177612	          0.00000000	          0.00000000	          0.00000000	          0.00000000	          0.00000000	          0.00000000	          0.00000000	          0.00000000	          0.00000000	        885.71350015	        678.14248074	        554.51135172	        885.41819956	        674.20096836	        573.58153055	        554.72240966	        502.82784040	        741.07169019	
          5.10000000	          0.00000000	          0.00000000	        382.53538124	        489.02076538	        344.86290550	          0.00000000	          0.00000000	          0.00000000	          0.00000000	          0.00000000	          0.00000000	          0.00000000	          0.00000000	          0.00000000	          0.00000000	          0.00000000	          0.00000000	          0.00000000	          0.00000000	         -8.09093285	          0.89166766	          7.32785559	         56.24638748	        -56.01117706	         22.06463432	         87.51383972	         74.10237885	          0.00000000	          0.00000000	          0.00000000	          0.00000000	          0.00000000	          0.00000000	          0.00000000	          0.00000000	          0.00000000	        885.69429383	        678.18570939	        554.56814254	        885.49302601	        674.20970796	        573.55399548	        554.69337496	        502.87257557	        741.09721001	
